{"glyphs":{":":{"x_min":0,"x_max":259,"ha":259,"o":"m 34 444 l 238 444 l 238 259 l 34 259 z m 34 180 l 238 180 l 238 -4 l 34 -4 z"},"$":{"x_min":0,"x_max":537,"ha":537,"o":"m 503 351 q 509 346 509 337 q 509 329 500 326 q 490 322 478 318 q 459 310 450 293 q 425 252 401 211 q 360 165 282 165 q 191 165 143 229 q 109 273 109 312 q 109 320 118 321 q 127 321 136 322 q 158 278 181 233 q 218 196 285 196 q 351 196 386 246 q 405 283 426 320 q 440 334 467 345 q 494 356 503 351 z m 504 274 q 510 271 510 260 q 510 253 509 250 q 503 217 471 178 q 435 133 389 111 l 371 102 l 371 6 l 194 6 l 194 102 q 188 104 185 104 q 166 112 146 124 q 94 155 61 223 q 36 275 36 304 q 36 312 53 312 q 64 312 65 306 q 75 273 85 240 q 138 122 282 122 q 377 122 429 174 q 467 224 504 274 z m 188 721 l 188 809 l 371 809 l 371 720 q 382 715 390 711 q 438 685 465 644 q 490 607 500 555 q 503 539 504 512 l 324 495 l 319 514 l 354 553 l 299 561 l 274 606 l 249 562 l 197 550 l 238 514 l 231 460 l 277 487 l 322 464 l 354 472 q 371 465 381 462 q 412 449 430 436 q 449 423 469 403 q 471 400 476 395 q 459 389 450 385 q 422 372 404 354 q 372 304 356 280 q 328 238 279 238 q 234 238 208 272 q 188 297 188 322 q 188 332 204 332 q 208 332 215 330 q 224 304 238 287 q 253 269 279 269 q 296 269 311 280 q 326 291 326 306 q 326 329 309 341 q 292 352 270 352 q 177 352 112 396 q 37 448 37 539 q 37 630 112 685 q 137 703 188 721 z"},"?":{"x_min":0,"x_max":582,"ha":582,"o":"m 40 510 q 30 513 49 586 q 71 672 123 726 q 196 801 314 801 q 411 801 473 746 q 520 706 542 643 q 561 589 553 583 q 550 581 538 588 q 526 595 523 600 q 515 623 507 647 q 485 698 447 729 q 395 771 316 771 q 210 771 147 704 q 103 654 82 577 q 75 542 68 507 q 56 504 40 510 z m 117 504 q 115 506 115 518 q 115 585 149 640 q 202 726 312 726 q 403 726 445 671 q 479 602 495 573 q 503 559 546 538 q 563 530 561 526 q 557 518 554 512 q 552 506 549 507 q 522 511 496 529 q 475 543 468 554 q 443 604 418 653 q 384 697 310 697 q 209 697 170 604 q 157 553 146 502 q 138 502 134 502 q 121 502 117 504 z m 211 212 l 211 309 q 211 340 221 366 q 231 392 248 413 q 254 420 327 482 q 374 522 374 560 q 374 588 356 607 q 338 626 305 626 q 265 626 244 586 q 231 541 219 497 q 208 496 202 496 q 195 496 190 499 q 188 501 188 510 q 188 554 212 595 q 246 654 308 654 q 366 654 396 606 q 420 550 427 535 q 440 507 493 481 q 510 473 542 461 q 540 450 530 438 q 512 416 479 388 q 437 351 429 341 q 410 319 404 299 q 401 289 399 278 q 396 267 396 261 l 396 212 z m 211 169 l 396 169 l 396 1 l 211 1 z m 293 370 l 240 362 l 279 321 l 271 270 l 319 295 l 369 270 l 360 321 l 396 360 l 344 371 l 317 420 z"},"'":{"x_min":0,"x_max":271,"ha":271,"o":"m 34 626 l 34 801 l 238 801 l 238 595 q 238 572 230 547 q 222 522 206 500 q 190 478 166 456 q 142 435 127 435 q 121 435 117 439 q 113 444 113 449 q 113 458 146 485 q 165 500 174 514 q 204 559 204 617 l 204 735 q 204 747 199 755 q 194 763 181 763 q 170 763 164 754 q 159 746 159 734 l 159 614 q 159 591 156 579 q 153 567 142 551 q 127 530 121 524 q 107 508 96 508 q 91 508 86 513 q 81 518 81 524 q 81 532 91 544 q 101 555 111 567 q 114 572 117 585 q 120 597 120 605 q 120 626 112 626 z"},"a":{"x_min":0,"x_max":522,"ha":522,"o":"m 59 414 q 55 412 46 412 q 33 412 32 420 q 21 486 96 558 q 159 620 268 620 q 375 620 432 562 q 494 501 494 388 q 493 371 493 370 q 493 367 483 368 q 474 370 467 375 q 465 465 421 525 q 374 589 267 589 q 169 589 119 537 q 88 475 59 414 z m 110 413 q 96 434 134 486 q 179 549 270 549 q 370 549 404 471 q 421 388 424 375 q 432 350 451 337 q 473 323 496 311 q 499 306 494 300 q 489 295 482 292 q 466 287 436 306 q 405 326 394 355 q 384 403 379 429 q 362 517 271 517 q 194 517 159 462 q 148 445 139 408 q 132 406 128 406 q 114 406 110 413 z m 29 186 q 29 284 101 325 q 136 346 235 363 q 307 377 307 405 q 307 425 297 434 q 287 444 270 444 q 241 444 229 429 q 219 409 215 404 q 212 399 203 399 q 189 399 186 405 q 179 423 200 447 q 225 476 269 476 q 332 476 346 401 q 362 306 398 282 q 433 257 468 246 q 479 243 496 240 l 496 0 l 220 0 q 141 0 85 53 q 29 106 29 186 z m 304 170 l 286 121 l 230 117 l 269 76 l 257 21 l 310 48 l 358 21 l 347 76 l 388 116 l 333 122 l 307 171 l 307 268 q 297 269 291 269 q 262 269 245 261 q 218 248 218 219 q 218 189 243 177 q 259 169 287 169 q 293 169 299 169 q 301 169 304 170 z"},"L":{"x_min":0,"x_max":519,"ha":519,"o":"m 39 0 l 39 803 l 231 803 l 231 178 l 467 178 q 481 178 484 177 q 492 174 492 162 q 492 151 485 148 q 479 145 468 145 l 261 145 q 254 145 251 145 q 232 145 232 124 q 232 108 238 105 q 244 103 259 103 l 467 103 q 479 103 482 102 q 490 98 490 86 q 490 74 484 71 q 478 68 467 68 l 256 68 q 240 68 237 65 q 232 62 232 50 q 232 35 239 30 q 243 29 256 29 l 467 29 q 484 29 485 28 q 488 25 488 15 q 488 6 483 3 q 477 0 468 0 z m 99 585 l 88 534 l 138 556 l 188 536 l 175 587 l 212 626 l 159 629 l 134 679 l 111 629 l 57 621 z"},"3":{"x_min":0,"x_max":564,"ha":564,"o":"m 63 245 q 66 159 121 96 q 182 29 301 29 q 379 29 429 73 q 464 104 486 159 q 493 184 501 209 q 504 214 514 218 q 525 221 529 219 q 537 212 521 160 q 501 96 457 55 q 396 -1 299 -1 q 180 -1 112 61 q 37 129 37 233 q 37 239 37 240 q 37 241 38 242 q 53 247 63 245 z m 139 255 q 157 202 175 148 q 214 103 295 103 q 379 103 414 175 q 433 226 441 246 q 445 256 466 271 q 493 291 520 295 q 522 296 528 292 q 534 288 538 281 q 540 278 502 259 q 479 247 472 235 q 450 185 429 135 q 388 74 297 74 q 192 74 143 140 q 110 185 110 238 q 110 253 112 253 z m 446 484 q 445 482 475 447 q 498 421 502 416 q 517 396 525 368 q 528 359 530 343 q 500 336 483 329 q 430 306 410 269 q 395 232 380 196 q 351 146 293 146 q 234 146 205 183 q 185 210 185 244 q 185 254 188 256 q 192 259 198 259 q 208 258 212 258 q 215 245 218 232 q 230 174 290 174 q 321 174 341 196 q 362 217 362 245 q 362 342 312 384 q 279 412 228 412 q 219 412 210 411 q 207 411 203 410 l 308 609 l 346 582 l 342 530 l 388 553 l 435 528 l 423 580 l 462 616 l 412 623 l 388 669 l 361 622 l 44 622 l 44 804 l 525 804 l 525 624 z"},";":{"x_min":0,"x_max":260,"ha":260,"o":"m 34 444 l 238 444 l 238 259 l 34 259 z m 34 1 l 34 176 l 238 176 l 238 -30 q 238 -53 230 -78 q 222 -103 206 -125 q 190 -147 166 -169 q 142 -190 127 -190 q 121 -190 117 -186 q 113 -181 113 -176 q 113 -167 146 -140 q 165 -125 174 -111 q 204 -66 204 -8 l 204 110 q 204 122 199 130 q 194 138 181 138 q 170 138 164 129 q 159 121 159 109 l 159 -11 q 159 -34 156 -46 q 153 -58 142 -74 q 127 -95 121 -101 q 107 -117 96 -117 q 91 -117 86 -112 q 81 -107 81 -101 q 81 -93 91 -81 q 101 -69 111 -58 q 114 -53 117 -40 q 120 -28 120 -20 q 120 1 112 1 z"},"J":{"x_min":0,"x_max":549,"ha":549,"o":"m 455 257 q 437 196 418 135 q 383 67 275 67 q 174 67 136 150 q 125 173 113 251 q 112 255 119 257 q 125 259 133 259 q 144 259 146 254 q 152 215 158 189 q 181 98 264 98 q 364 98 389 161 q 408 221 428 283 q 438 301 465 315 q 491 329 508 329 q 516 329 517 325 q 520 317 520 312 q 520 300 507 295 q 495 290 481 286 q 463 277 455 257 z m 401 316 q 381 289 366 227 q 345 138 275 138 q 231 138 208 178 q 191 207 191 245 q 191 254 193 261 q 196 268 209 268 q 218 268 221 263 q 227 229 230 210 q 238 173 274 173 q 304 173 315 187 q 327 200 327 224 l 327 803 l 518 803 l 518 373 q 488 366 471 361 q 421 343 401 316 z m 481 229 q 481 243 504 252 q 510 251 516 250 q 516 141 466 77 q 404 -3 273 -3 q 170 -3 112 54 q 69 95 52 165 q 51 167 40 243 q 38 252 59 252 q 65 252 69 248 q 74 153 121 92 q 171 27 275 27 q 375 27 428 81 q 481 135 481 229 z m 423 551 l 470 530 l 461 578 l 496 616 l 447 622 l 422 667 l 396 623 l 346 615 l 384 577 l 375 529 z"},"V":{"x_min":0,"x_max":748,"ha":748,"o":"m 546 446 l 433 0 l 256 0 l 42 808 l 230 808 l 384 244 l 529 806 l 718 806 l 662 596 q 654 596 649 596 q 626 596 603 592 q 579 588 560 578 q 529 561 521 554 q 494 530 484 496 l 401 182 l 421 97 l 510 442 q 517 474 525 492 q 534 509 555 526 q 567 536 588 542 q 610 549 629 549 q 650 549 650 540 q 650 536 644 530 q 638 524 621 519 q 582 507 575 499 q 554 477 546 446 z m 619 418 l 519 35 q 514 17 512 12 q 505 0 494 0 q 481 0 481 15 q 481 23 488 52 l 584 427 q 588 446 596 460 q 605 473 621 473 q 629 473 629 462 q 629 457 626 445 q 622 432 619 418 z m 161 629 l 111 621 l 147 583 l 138 530 l 187 553 l 237 533 l 227 583 l 263 623 l 212 629 l 187 673 z"},"\"":{"x_min":0,"x_max":522,"ha":522,"o":"m 237 610 l 237 435 l 33 435 l 33 641 q 33 663 41 688 q 48 713 64 736 q 80 758 104 779 q 129 801 144 801 q 149 801 154 796 q 157 792 157 787 q 157 778 124 751 q 105 736 96 721 q 67 677 67 619 l 67 501 q 67 488 72 480 q 77 472 89 472 q 101 472 106 481 q 112 490 112 502 l 112 621 q 112 645 115 657 q 118 669 129 685 q 144 705 149 712 q 163 728 174 728 q 179 728 184 723 q 189 718 189 712 q 189 704 179 692 q 169 679 160 669 q 156 663 154 651 q 151 638 151 630 q 151 610 158 610 z m 487 610 l 487 435 l 283 435 l 283 641 q 283 663 291 688 q 298 713 314 736 q 330 758 354 779 q 379 801 394 801 q 399 801 404 796 q 407 792 407 787 q 407 778 374 751 q 355 736 346 721 q 317 677 317 619 l 317 501 q 317 488 322 480 q 327 472 339 472 q 351 472 356 481 q 362 490 362 502 l 362 621 q 362 645 365 657 q 368 669 379 685 q 394 705 399 712 q 413 728 424 728 q 429 728 434 723 q 439 718 439 712 q 439 704 429 692 q 419 679 410 669 q 406 663 404 651 q 401 638 401 630 q 401 610 408 610 z"},"7":{"x_min":0,"x_max":567,"ha":567,"o":"m 334 612 l 383 641 l 433 619 l 420 671 l 461 711 l 408 719 l 385 765 l 360 718 l 306 712 l 346 672 l 329 621 l 36 621 l 36 802 l 538 802 l 538 623 l 468 438 q 433 438 394 433 q 355 429 334 416 q 312 403 297 386 q 279 364 269 338 l 148 18 q 143 -1 121 -1 q 111 -1 111 8 q 111 12 113 18 q 115 25 116 28 z m 207 0 q 194 0 194 10 q 194 13 196 19 q 198 25 199 28 l 307 317 q 313 336 324 349 q 335 362 350 373 q 365 385 386 390 q 407 395 428 395 q 443 395 448 391 q 452 388 446 373 q 445 371 442 366 q 422 363 406 361 q 389 358 377 349 q 348 329 336 295 l 234 21 q 226 0 207 0 z m 286 1 q 276 1 276 10 q 276 13 278 20 q 280 27 281 29 l 374 287 q 379 299 388 306 q 398 312 407 312 q 415 312 415 304 q 415 296 408 278 l 316 26 q 312 14 305 8 q 297 1 286 1 z"},"S":{"x_min":0,"x_max":586,"ha":586,"o":"m 554 329 q 561 325 561 316 q 561 304 551 299 q 536 293 521 288 q 502 277 497 259 q 479 176 461 146 q 413 67 310 67 q 221 67 170 119 q 112 177 112 256 q 112 264 129 264 q 133 264 138 264 q 138 264 141 263 q 164 205 188 148 q 230 99 310 99 q 402 99 438 179 q 456 235 475 290 q 484 304 508 317 q 531 330 546 330 q 553 330 554 329 z m 552 249 q 565 242 562 221 q 545 140 510 92 q 444 1 314 1 q 188 1 116 70 q 39 143 39 246 q 39 250 46 254 q 53 259 59 259 q 65 259 67 254 q 75 219 84 185 q 106 121 151 84 q 213 31 313 31 q 415 31 470 92 q 503 129 524 202 q 538 225 552 249 z m 368 534 q 364 566 359 582 q 340 630 294 630 q 262 630 245 611 q 227 591 227 562 q 227 533 247 516 q 267 499 295 496 q 411 479 475 442 q 513 420 535 373 q 518 369 508 365 q 478 353 455 332 q 446 323 408 216 q 380 138 308 138 q 242 138 208 192 q 183 231 187 265 q 187 276 198 276 q 206 276 216 271 q 221 229 242 200 q 263 171 307 171 q 337 171 354 191 q 372 212 372 236 q 372 262 357 281 q 338 306 303 311 q 180 326 115 380 q 38 445 38 563 q 38 684 122 748 q 195 804 304 804 q 422 804 487 739 q 533 693 549 618 q 552 585 555 553 z m 292 663 l 343 639 l 329 691 l 372 734 l 316 736 l 289 785 l 265 737 l 212 730 l 249 691 l 244 639 z"},"Z":{"x_min":0,"x_max":594,"ha":594,"o":"m 348 612 l 390 578 l 379 529 l 428 550 l 474 529 l 469 580 l 504 620 l 449 629 l 427 674 l 403 628 l 79 628 l 79 807 l 570 807 l 570 629 l 329 176 l 533 176 q 539 176 543 176 q 553 176 556 174 q 562 171 562 161 q 562 150 557 146 q 554 144 545 144 q 538 144 534 144 l 247 144 q 212 144 189 138 q 167 132 139 112 q 117 96 80 36 q 65 10 59 8 q 53 7 46 7 q 34 7 34 14 q 34 18 39 26 q 44 35 45 38 z m 205 65 q 188 60 162 25 q 151 10 140 7 q 122 4 122 14 q 122 27 143 52 q 163 78 178 88 q 188 96 200 98 q 213 101 229 101 l 539 101 q 550 101 554 99 q 561 96 561 84 q 561 73 554 70 q 550 67 540 67 l 238 67 q 227 67 221 67 q 211 67 205 65 z m 229 25 q 233 26 243 27 q 254 28 274 28 q 287 28 293 28 l 540 28 q 554 28 555 27 q 560 25 560 14 q 560 3 554 0 q 551 -1 542 -1 l 208 -1 q 202 -1 204 5 q 212 21 229 25 z"},"x":{"x_min":0,"x_max":638,"ha":638,"o":"m 450 304 l 614 1 l 408 1 l 330 152 l 249 0 l 47 -1 l 203 304 l 38 621 l 238 621 l 327 459 l 410 621 l 575 621 q 586 621 596 621 q 610 619 610 612 q 610 611 607 606 q 596 593 539 589 q 483 586 459 574 q 435 562 428 557 q 402 539 389 512 l 353 438 q 346 425 360 415 q 365 412 370 410 q 377 407 379 411 l 408 463 q 415 476 422 489 q 435 510 455 523 q 471 533 493 538 q 514 543 534 543 q 545 543 554 542 q 562 540 566 540 q 571 539 569 531 q 566 522 555 516 q 529 513 507 510 q 486 506 473 496 q 464 488 458 479 q 451 469 445 456 l 402 379 q 399 373 402 366 q 404 358 409 354 q 414 349 421 345 q 429 341 431 346 l 485 444 q 492 458 499 462 q 506 466 518 466 q 528 466 528 457 q 528 450 524 441 q 523 438 516 426 z m 203 185 l 150 178 l 188 138 l 181 87 l 229 106 l 279 86 l 271 138 l 311 179 l 254 184 l 229 232 z"},")":{"x_min":0,"x_max":300,"ha":300,"o":"m 211 706 q 235 670 246 647 q 272 590 272 535 l 272 201 q 272 156 250 100 q 235 62 217 34 q 198 6 151 -33 q 104 -73 84 -73 q 78 -73 75 -68 q 70 -55 127 -9 q 167 24 189 62 q 212 99 223 135 q 235 171 235 200 l 235 546 q 235 586 217 627 q 205 653 183 685 q 147 735 94 767 q 76 778 76 787 q 76 790 79 796 q 81 803 89 803 q 109 803 150 770 q 190 737 211 706 z m 196 546 l 196 198 q 196 178 192 159 q 183 122 157 81 q 140 55 110 27 q 75 -5 55 -5 q 46 -5 43 1 q 40 5 40 9 q 40 15 57 29 q 103 64 121 93 q 138 122 146 139 q 158 169 158 198 l 158 545 q 158 571 151 590 q 144 609 129 634 q 109 665 84 686 q 45 717 45 722 q 45 726 47 732 q 50 738 55 738 q 72 738 106 709 q 140 681 156 657 q 171 633 181 611 q 196 575 196 546 z"},"&":{"x_min":0,"x_max":677,"ha":677,"o":"m 312 629 q 290 629 277 615 q 263 601 263 584 q 263 557 276 541 q 278 538 282 534 l 460 352 q 475 362 486 368 q 519 386 549 392 q 559 394 585 397 q 611 401 622 401 q 635 401 641 398 q 646 395 646 387 q 646 374 637 369 q 597 371 556 362 q 515 354 481 326 q 465 313 409 212 q 368 140 296 140 q 227 140 191 220 q 144 324 126 338 q 112 349 77 358 q 71 359 62 362 q 65 374 69 384 q 72 394 84 410 q 92 421 115 445 q 119 448 125 454 q 109 479 102 496 q 79 549 79 603 q 79 687 148 745 q 218 803 312 803 q 419 803 482 738 q 527 691 546 615 q 552 581 557 548 l 375 529 q 372 562 368 579 q 353 629 312 629 z m 45 296 q 42 301 42 306 q 42 317 52 321 q 61 325 82 314 q 103 303 117 288 q 145 218 165 178 q 204 101 303 101 q 382 101 421 160 q 458 222 496 286 q 511 305 548 316 q 585 327 616 327 q 637 327 642 322 q 648 317 648 310 q 648 303 643 298 q 604 295 573 289 q 542 283 527 267 q 512 252 471 176 q 413 69 304 69 q 177 69 129 173 q 112 216 96 259 q 86 278 66 285 q 46 292 45 296 z m 314 29 q 421 29 477 109 q 516 174 556 239 q 562 246 581 250 q 599 254 621 254 q 638 254 643 249 q 647 245 647 234 q 647 226 643 223 q 638 221 630 221 q 617 221 610 221 q 599 221 592 219 q 584 217 576 210 q 523 131 471 53 q 412 0 312 0 q 178 0 101 88 q 42 156 42 233 q 42 239 60 239 q 65 239 67 237 q 90 137 150 85 q 214 29 314 29 z m 350 213 l 259 312 q 250 321 236 300 q 222 279 222 251 q 222 238 226 225 q 230 212 242 200 q 253 187 267 181 q 280 175 297 175 q 319 175 336 185 q 353 196 353 206 q 353 211 350 213 z m 286 737 l 236 729 l 273 694 l 264 643 l 312 668 l 356 643 l 346 693 l 379 732 l 331 738 l 308 781 z"},"v":{"x_min":0,"x_max":626,"ha":626,"o":"m 36 621 l 227 621 l 328 246 l 422 621 l 592 621 q 600 621 603 620 q 607 617 607 607 q 607 594 543 582 q 502 574 479 558 q 455 543 439 519 q 427 500 422 482 l 347 176 l 367 97 l 451 433 q 459 466 467 483 q 474 499 496 520 q 507 530 529 538 q 551 546 570 546 q 587 546 589 538 q 595 521 562 514 q 529 507 515 491 q 496 468 488 432 l 379 -1 l 201 0 z m 431 36 l 532 437 q 535 451 543 461 q 552 471 565 468 q 572 467 572 457 q 572 450 571 446 q 568 437 565 427 l 467 29 q 464 17 458 9 q 451 2 440 2 q 429 2 429 18 q 429 22 429 27 q 430 31 431 36 z m 104 435 l 144 396 l 133 343 l 184 367 l 233 346 l 223 397 l 263 437 l 207 443 l 182 492 l 158 443 z"},"O":{"x_min":0,"x_max":622,"ha":622,"o":"m 586 370 q 580 371 576 372 q 567 379 558 391 q 554 445 551 498 q 541 612 498 679 q 436 775 309 775 q 218 775 161 724 q 118 660 76 596 q 65 586 58 586 q 52 586 52 596 q 52 599 53 604 q 54 611 56 616 q 87 698 136 743 q 203 804 306 804 q 427 804 496 729 q 551 671 573 570 q 588 504 588 418 q 588 404 587 388 q 586 371 586 370 z m 585 319 q 590 313 590 305 q 590 295 582 292 q 570 288 532 313 q 495 338 489 359 q 488 363 476 476 q 464 589 438 635 q 396 704 309 704 q 232 704 189 645 q 160 594 130 544 q 121 530 99 521 q 77 511 61 511 q 57 511 52 512 q 46 515 46 521 q 46 530 54 535 q 70 541 79 544 q 96 550 105 565 q 168 671 178 682 q 225 734 310 734 q 414 734 462 655 q 496 600 508 489 q 519 378 525 364 q 530 351 548 340 q 565 329 585 319 z m 41 465 q 67 468 82 471 q 129 483 158 512 q 160 513 213 604 q 246 659 310 659 q 385 659 413 586 q 429 544 436 443 q 443 342 460 321 q 488 287 538 260 q 555 252 584 240 q 578 208 571 177 q 548 105 497 60 q 425 -4 310 -4 q 197 -4 130 62 q 77 116 53 214 q 35 288 35 373 q 35 410 37 430 q 38 450 41 465 z m 299 166 l 288 123 l 231 119 l 276 78 l 261 24 l 312 45 l 360 25 l 354 73 l 389 116 l 336 124 l 327 166 q 362 183 377 220 q 402 283 402 396 q 402 512 386 563 q 365 629 312 629 q 260 629 238 554 q 222 497 222 396 q 222 286 246 225 q 261 188 299 166 z"},"(":{"x_min":0,"x_max":287,"ha":287,"o":"m 222 797 q 225 790 225 787 q 225 784 179 749 q 146 725 119 687 q 92 648 79 612 q 66 575 66 546 l 66 200 q 66 162 82 120 q 92 94 113 58 q 134 23 172 -8 q 230 -56 226 -68 q 223 -73 216 -73 q 196 -73 150 -34 q 104 5 84 35 q 68 59 52 100 q 29 158 29 201 l 29 535 q 29 579 45 623 q 56 656 90 706 q 110 735 151 769 q 193 803 212 803 q 220 803 222 797 z m 144 656 q 159 679 194 708 q 229 738 246 738 q 251 738 254 732 q 256 726 256 722 q 256 716 218 686 q 191 664 172 634 q 158 612 152 594 q 143 570 143 545 l 143 198 q 143 168 154 140 q 161 125 181 92 q 197 66 232 38 q 261 16 261 8 q 261 5 257 0 q 253 -5 246 -5 q 226 -5 191 27 q 161 55 144 81 q 120 120 110 158 q 104 179 104 198 l 104 546 q 104 577 119 611 q 126 629 144 656 z"},"C":{"x_min":0,"x_max":614,"ha":614,"o":"m 554 507 q 548 542 543 577 q 527 656 484 705 q 424 775 318 775 q 240 775 184 731 q 145 701 118 648 q 107 623 97 599 q 95 595 84 592 q 73 589 70 592 q 62 598 83 648 q 109 708 156 747 q 221 801 312 801 q 430 801 501 726 q 552 672 572 587 q 590 512 581 510 q 565 504 554 507 z m 476 502 q 457 571 439 641 q 400 701 319 701 q 247 701 208 649 q 173 584 158 558 q 143 532 104 519 q 64 505 50 509 q 47 510 49 519 q 51 529 54 532 q 83 542 103 551 q 123 560 129 573 q 169 656 180 671 q 229 729 314 729 q 423 729 473 645 q 506 589 506 521 q 506 506 504 504 q 503 504 499 503 q 495 502 486 502 q 479 502 478 502 q 477 502 476 502 z m 42 469 q 80 471 102 476 q 167 492 193 537 q 210 572 228 608 q 261 658 319 658 q 379 658 411 599 q 433 557 433 512 q 433 501 431 499 q 427 496 419 496 q 407 497 403 497 q 400 530 391 563 q 372 630 314 630 q 277 630 256 584 q 230 526 230 400 q 230 282 255 221 q 271 183 310 165 l 295 120 l 237 114 l 279 75 l 269 19 l 319 47 l 366 20 l 357 74 l 401 114 l 341 120 l 321 165 q 329 167 333 169 q 362 181 384 214 q 392 227 398 263 q 400 275 403 296 l 588 286 q 583 248 579 211 q 560 125 509 71 q 438 -4 315 -4 q 202 -4 134 68 q 80 125 56 229 q 38 306 38 392 q 38 421 39 438 q 40 456 42 469 z"},"W":{"x_min":0,"x_max":1064,"ha":1064,"o":"m 885 438 l 802 1 l 634 1 l 537 457 l 446 1 l 205 1 l 33 806 l 230 806 l 325 345 l 410 806 l 658 806 l 747 342 l 838 806 l 1033 806 l 993 588 q 968 586 954 584 q 911 577 885 562 q 864 550 846 532 q 821 506 815 480 l 767 246 l 788 144 l 846 437 q 852 465 862 484 q 871 503 892 520 q 902 529 921 534 q 940 539 954 539 q 981 539 981 529 q 981 524 975 518 q 969 512 954 507 q 920 498 912 490 q 901 478 894 465 q 888 453 885 438 z m 958 412 l 882 27 q 880 16 872 8 q 864 -1 854 3 q 846 5 846 20 q 846 27 847 36 l 921 418 q 923 438 933 451 q 944 464 958 464 q 967 464 967 454 q 967 448 963 432 q 959 415 958 412 z m 506 619 l 455 612 l 494 574 l 488 526 l 534 548 l 581 526 l 572 574 l 610 614 l 557 618 l 530 665 z m 252 289 l 287 249 l 279 198 l 328 224 l 371 198 l 366 249 l 402 288 l 353 298 l 325 344 l 301 297 z"},"A":{"x_min":0,"x_max":755,"ha":755,"o":"m 126 294 q 121 296 119 296 q 111 301 112 307 q 112 314 115 318 q 117 321 122 323 q 130 323 136 323 q 169 326 191 348 q 203 360 212 381 q 218 396 225 423 l 329 803 l 506 803 l 725 -1 l 524 0 l 488 121 l 265 121 l 225 0 l 30 0 l 95 246 q 126 248 144 250 q 198 257 223 275 q 248 294 263 314 q 282 340 292 375 l 361 629 l 343 704 l 271 445 q 258 396 247 371 q 232 336 212 321 q 187 302 154 296 q 143 294 126 294 z m 243 786 q 247 804 267 804 q 278 804 281 795 q 282 792 283 786 l 181 417 q 178 403 172 392 q 167 382 158 377 q 154 374 146 373 q 138 372 130 371 z m 378 543 l 307 296 l 436 296 l 421 248 l 364 237 l 401 200 l 392 147 l 442 174 l 490 146 l 482 199 l 521 237 l 466 247 l 445 296 z"},"f":{"x_min":0,"x_max":360,"ha":360,"o":"m 223 540 l 333 540 l 333 358 l 168 358 l 143 403 l 116 359 l 66 353 l 101 312 l 96 264 l 142 284 l 188 265 l 179 313 l 220 346 l 220 1 l 36 1 l 36 419 q 49 421 57 423 q 108 438 139 469 q 175 504 184 563 q 193 622 223 639 q 237 646 258 650 q 279 654 297 654 q 323 654 329 650 q 334 646 334 635 q 334 627 329 622 q 308 621 278 620 q 247 619 235 605 q 223 592 223 569 z m 43 469 q 38 471 38 481 q 38 486 41 492 q 44 498 62 504 q 79 510 87 517 q 104 534 112 573 q 129 657 159 686 q 182 707 218 717 q 254 726 291 726 q 323 726 328 721 q 332 718 332 708 q 332 697 328 695 q 299 695 258 692 q 216 689 188 666 q 167 649 157 613 q 131 518 125 510 q 112 490 82 477 q 53 463 43 469 z m 102 733 q 136 770 196 786 q 238 797 288 797 q 305 797 313 797 q 321 796 327 795 q 332 791 332 781 q 332 771 329 770 q 272 771 217 759 q 162 746 128 713 q 102 688 87 646 q 71 604 71 576 q 71 567 62 558 q 57 554 44 547 q 40 546 38 551 q 37 556 37 569 q 37 605 50 645 q 68 696 102 733 z"},"Q":{"x_min":0,"x_max":623,"ha":623,"o":"m 305 810 q 419 810 488 746 q 546 693 572 596 q 594 517 594 419 q 594 298 570 209 q 562 179 546 144 l 593 17 l 412 -47 l 388 12 q 371 10 350 8 q 329 5 310 5 q 213 5 147 60 q 80 114 54 216 q 52 223 61 223 q 74 223 84 215 q 102 176 121 140 q 141 104 165 85 q 196 61 240 47 q 285 33 321 33 q 346 33 361 40 q 377 46 377 58 q 377 73 307 75 q 238 76 194 117 q 169 141 139 203 q 126 230 109 247 q 99 256 62 265 q 46 269 42 274 q 38 279 38 285 q 38 290 42 294 q 46 298 61 298 q 79 298 100 291 q 121 283 135 270 q 148 257 179 191 q 195 160 219 138 q 237 122 265 113 q 293 104 316 104 q 335 104 346 109 q 358 114 357 124 q 355 140 312 143 q 268 146 243 174 q 238 180 193 257 q 176 286 152 306 q 129 327 80 338 q 65 342 38 346 q 37 356 36 379 q 35 401 35 415 q 35 504 51 575 q 74 677 128 736 q 196 810 305 810 z m 313 634 q 246 634 231 521 q 226 480 226 407 q 226 303 237 257 q 255 178 312 178 q 383 178 397 294 q 403 336 403 410 q 403 508 389 557 q 369 634 313 634 z m 315 673 l 361 654 l 351 700 l 386 736 l 336 744 l 312 785 l 291 743 l 238 736 l 276 698 l 267 654 z"},"w":{"x_min":0,"x_max":974,"ha":974,"o":"m 371 621 l 612 621 l 692 295 l 766 621 l 938 621 q 953 621 953 607 q 953 594 888 582 q 847 574 824 558 q 801 543 786 519 q 774 500 771 482 l 709 211 l 729 110 l 800 439 q 806 467 814 484 q 821 501 841 520 q 853 530 875 538 q 896 546 915 546 q 932 546 935 538 q 940 521 908 514 q 875 507 861 491 q 840 467 834 432 l 740 0 l 570 0 l 496 328 l 425 0 l 181 -1 l 34 621 l 224 621 l 301 289 z m 789 35 l 879 437 q 883 452 890 461 q 897 471 911 468 q 918 467 918 455 q 918 451 916 442 q 914 433 913 428 l 824 27 q 821 15 815 8 q 808 2 796 2 q 787 2 787 15 q 787 20 788 25 q 788 29 789 35 z m 416 434 l 456 396 l 446 342 l 496 366 l 546 345 l 536 396 l 576 436 l 520 442 l 495 491 l 471 442 z m 222 174 l 262 136 l 252 82 l 303 106 l 352 85 l 342 137 l 382 176 l 326 182 l 301 231 l 277 182 z"},"-":{"x_min":0,"x_max":234,"ha":234,"o":"m 63 307 l 188 307 q 196 307 204 303 q 211 299 211 291 q 211 275 188 275 l 63 275 q 51 275 43 278 q 36 281 36 291 q 36 298 42 303 q 48 307 63 307 z m 62 403 l 186 403 q 195 403 202 399 q 209 395 209 387 q 209 371 187 371 l 62 371 q 49 371 42 374 q 34 377 34 387 q 34 394 40 398 q 46 403 62 403 z"},"E":{"x_min":0,"x_max":520,"ha":520,"o":"m 231 482 l 463 482 q 480 482 482 481 q 488 478 488 468 q 488 456 480 454 q 472 453 464 453 l 256 453 q 244 453 237 450 q 230 447 230 433 q 230 419 236 416 q 242 412 255 412 l 462 412 q 476 412 479 412 q 488 409 488 397 q 488 389 483 385 q 478 381 463 381 l 258 381 q 251 381 244 381 q 230 379 230 360 q 230 348 235 343 q 240 338 258 338 l 462 338 q 476 338 479 338 q 487 335 487 323 q 487 306 463 306 l 231 306 l 231 171 l 488 171 l 488 0 l 36 0 l 36 804 l 487 804 l 487 621 l 179 621 l 152 664 l 126 621 l 68 615 l 112 571 l 104 520 l 153 541 l 200 520 l 190 571 l 231 606 z"},"s":{"x_min":0,"x_max":523,"ha":523,"o":"m 316 389 l 311 409 l 346 446 l 293 454 l 268 496 l 244 455 l 192 444 l 231 409 l 225 355 l 271 382 l 314 359 l 346 368 q 362 361 372 357 q 403 344 419 333 q 442 317 459 300 q 462 297 466 292 q 456 288 451 287 q 415 272 395 251 q 384 239 360 197 q 326 138 272 138 q 229 138 203 171 q 182 197 184 220 q 184 230 199 230 q 205 230 211 228 q 218 203 232 185 q 246 168 273 168 q 291 168 304 178 q 318 188 318 205 q 318 228 302 238 q 287 249 263 249 q 172 249 108 293 q 34 344 34 433 q 34 521 107 572 q 172 619 268 619 q 369 619 427 564 q 469 525 485 462 q 488 435 493 407 z m 491 248 q 498 244 498 234 q 498 227 489 223 q 479 220 468 216 q 449 208 440 192 q 395 113 392 111 q 352 66 275 66 q 187 66 138 129 q 105 171 105 212 q 104 219 115 219 q 125 220 131 220 q 143 165 177 131 q 212 96 278 96 q 343 96 378 146 q 397 181 417 217 q 430 232 456 243 q 482 254 491 248 z m 493 173 q 499 170 499 159 q 499 153 498 150 q 487 99 445 58 q 380 -4 274 -4 q 168 -4 105 54 q 35 121 35 204 q 35 208 42 210 q 45 211 51 211 q 61 211 62 205 q 92 110 126 78 q 182 25 275 25 q 369 25 421 76 q 456 124 493 173 z"},"l":{"x_min":0,"x_max":239,"ha":239,"o":"m 38 797 l 207 797 l 207 -6 l 38 -6 z m 124 226 l 102 182 l 53 174 l 87 138 l 77 88 l 123 109 l 172 87 l 162 138 l 195 176 l 146 182 z"},"8":{"x_min":0,"x_max":570,"ha":570,"o":"m 70 609 q 66 604 60 598 q 54 592 50 592 q 44 592 44 606 q 44 688 128 754 q 192 804 288 804 q 388 804 454 756 q 530 702 530 600 q 530 536 491 465 q 479 442 452 408 q 469 396 479 385 q 538 321 538 219 q 538 103 455 45 q 385 -4 271 -4 q 165 -4 100 52 q 29 113 29 229 q 29 289 73 357 q 88 379 119 413 l 97 438 l 76 467 q 96 479 117 494 q 139 509 151 522 q 182 582 198 611 q 228 663 288 663 q 328 663 357 641 q 387 619 387 580 q 387 550 367 519 q 361 509 347 494 q 345 491 344 489 q 340 484 340 479 q 340 473 347 468 q 354 463 360 463 q 364 463 369 468 q 370 469 371 470 q 389 490 398 504 q 427 549 427 594 q 427 644 387 674 q 346 704 288 704 q 214 704 178 655 q 146 592 128 562 q 117 545 92 529 q 68 512 60 514 q 50 517 50 531 q 50 537 53 541 q 70 553 82 561 q 95 569 100 579 q 153 678 157 683 q 200 733 288 733 q 368 733 414 694 q 461 654 461 587 q 461 553 445 518 q 427 488 409 458 q 407 455 406 454 q 403 447 403 444 q 403 437 408 433 q 414 429 419 429 q 426 429 433 437 q 435 438 438 445 q 458 471 468 488 q 498 544 498 594 q 498 688 434 734 q 379 773 289 773 q 175 773 121 707 q 82 630 70 609 z m 291 496 q 312 506 321 515 q 353 543 353 578 q 353 602 334 618 q 315 634 288 634 q 257 634 239 616 q 221 597 221 572 q 221 535 255 512 q 267 504 291 496 z m 358 221 q 358 263 318 289 q 304 297 277 307 q 255 296 245 287 q 212 259 212 223 q 212 191 245 174 q 255 169 278 163 l 262 121 l 212 112 l 249 74 l 238 24 l 286 45 l 333 24 l 321 75 l 354 111 l 304 121 l 292 166 q 314 168 325 172 q 358 186 358 221 z"},"e":{"x_min":0,"x_max":529,"ha":529,"o":"m 60 322 q 78 320 99 304 q 117 292 123 284 q 144 214 160 173 q 191 96 271 96 q 322 96 352 129 q 371 167 391 205 q 395 207 402 207 q 414 207 416 200 q 424 160 376 109 q 337 68 271 68 q 175 68 136 147 q 110 240 100 263 q 94 277 67 289 q 41 302 40 303 q 36 307 36 312 q 36 323 52 323 q 57 323 60 322 z m 62 247 q 75 153 124 91 q 177 25 272 25 q 354 25 402 77 q 434 137 466 196 q 471 199 478 196 q 484 194 489 192 q 496 189 478 141 q 455 83 414 47 q 357 -3 272 -3 q 179 -3 121 53 q 78 93 55 162 q 46 188 38 239 q 38 244 48 247 q 58 251 62 247 z m 271 620 q 288 621 299 620 q 368 612 429 555 q 463 523 483 450 q 503 377 503 276 q 503 266 503 263 q 503 262 503 259 l 218 259 q 219 229 222 213 q 234 168 271 168 q 301 168 310 191 q 320 213 321 213 q 324 214 331 214 q 345 214 345 208 q 345 179 325 159 q 305 139 271 139 q 217 139 196 195 q 175 251 155 308 q 139 338 88 358 q 71 364 38 371 q 44 412 49 434 q 65 502 91 536 q 131 588 201 609 q 224 615 262 619 l 245 569 l 191 562 l 230 523 l 221 471 l 271 496 l 320 471 l 307 522 l 346 561 l 291 570 z m 214 362 l 325 362 q 324 379 322 388 q 310 443 270 443 q 237 443 222 403 q 218 389 214 362 z"},"b":{"x_min":0,"x_max":536,"ha":536,"o":"m 32 803 l 217 803 l 217 619 q 271 620 329 609 q 388 599 424 571 q 461 543 483 482 q 501 434 501 395 q 501 382 499 378 q 497 372 493 375 q 474 388 470 400 q 458 442 446 485 q 430 520 393 550 q 373 566 333 574 q 294 582 257 582 q 227 582 222 578 q 221 576 221 571 q 220 567 220 564 q 220 559 221 551 q 221 549 221 545 q 267 546 309 539 q 352 532 376 509 q 401 486 417 430 q 432 375 441 360 q 449 346 470 334 q 495 322 504 318 q 511 314 504 309 q 492 297 477 300 q 456 304 439 316 q 416 332 404 359 q 401 364 381 428 q 369 468 346 489 q 334 500 305 506 q 277 512 249 512 q 226 512 224 504 q 221 496 221 488 q 221 474 226 471 q 258 471 286 464 q 313 457 331 438 q 348 419 358 370 q 367 321 395 298 q 428 270 470 256 q 483 252 504 248 q 496 205 488 181 q 466 108 434 75 q 395 35 351 18 q 308 2 247 2 l 32 2 z m 220 173 l 201 129 l 148 120 l 185 80 l 179 28 l 226 54 l 273 29 l 266 83 l 300 122 l 247 129 l 228 174 l 251 174 q 291 174 310 213 q 326 247 326 311 q 326 436 247 436 q 238 436 234 436 q 220 436 220 434 z"},"%":{"x_min":0,"x_max":796,"ha":796,"o":"m 562 744 l 460 420 q 471 434 480 442 q 534 493 593 493 q 679 493 721 414 q 757 349 757 250 q 757 142 723 77 q 681 -4 593 -4 q 499 -4 462 83 q 438 137 438 218 q 438 226 438 235 q 438 238 439 241 l 490 212 l 488 267 l 527 309 l 472 318 l 448 370 l 424 319 l 371 309 l 410 269 l 321 0 l 216 0 l 388 540 q 389 547 393 557 q 397 566 397 570 q 397 576 393 581 q 389 586 382 588 q 374 591 366 591 q 347 591 347 580 q 347 415 305 358 q 267 306 187 306 q 112 306 72 366 q 44 408 35 479 q 33 509 31 539 q 46 545 53 548 q 77 560 87 573 q 104 650 125 689 q 145 728 187 728 q 222 728 273 673 q 323 618 376 618 q 443 618 485 666 q 519 721 553 777 q 564 780 564 761 q 564 751 562 744 z m 60 608 q 57 603 49 600 q 40 596 38 595 q 37 594 36 596 q 35 600 35 607 q 35 665 65 721 q 108 802 188 802 q 245 802 297 746 q 350 691 379 691 q 423 691 446 734 q 461 765 476 797 q 480 803 490 798 q 500 793 499 786 q 489 729 458 694 q 426 659 383 659 q 346 659 310 695 q 233 772 187 772 q 119 772 87 697 q 73 653 60 608 z m 595 388 q 560 388 548 351 q 540 326 540 271 q 540 254 540 247 q 540 175 546 149 q 556 97 595 97 q 629 97 641 135 q 649 159 649 214 q 649 236 649 246 q 649 262 649 270 q 649 327 642 350 q 630 388 595 388 z m 138 562 q 138 548 137 534 q 137 520 137 504 q 137 457 145 437 q 156 406 188 406 q 220 406 232 438 q 241 461 241 507 q 241 520 241 533 q 240 546 240 558 q 240 575 240 585 q 240 638 233 661 q 221 696 188 696 q 156 696 145 660 q 138 637 138 584 q 138 570 138 562 z"},"m":{"x_min":0,"x_max":797,"ha":797,"o":"m 170 432 l 138 480 l 115 433 l 59 428 l 103 389 l 90 337 l 143 361 l 188 340 l 179 392 l 218 421 l 218 1 l 36 1 l 36 618 l 344 618 q 346 596 349 583 q 362 541 397 510 q 432 479 527 472 q 569 470 591 447 q 611 428 621 375 q 632 322 652 301 q 681 270 725 254 q 739 248 764 243 l 764 0 l 580 0 l 580 380 q 580 388 580 391 q 580 407 571 420 q 562 432 538 432 l 495 432 l 495 0 l 305 0 l 305 380 q 305 388 305 392 q 305 397 304 405 q 304 413 297 420 q 291 427 284 429 q 278 432 259 432 z m 682 569 q 720 536 744 479 q 765 430 765 395 q 765 377 759 371 q 751 364 742 376 q 732 388 729 413 q 727 438 706 479 q 683 527 655 548 q 627 570 581 578 q 530 582 479 587 q 471 589 463 605 q 463 610 463 614 q 474 616 506 616 q 557 616 596 608 q 651 596 682 569 z m 455 555 q 463 551 535 545 q 607 539 638 510 q 664 486 679 446 q 689 403 700 361 q 708 347 726 337 q 745 327 763 317 q 766 312 766 308 q 766 294 754 290 q 742 287 716 301 q 690 315 671 341 q 662 354 651 408 q 640 462 613 485 q 586 508 521 512 q 457 517 444 523 q 421 534 405 556 q 388 578 388 591 q 388 602 392 609 q 395 616 404 617 q 410 618 417 604 q 436 565 455 555 z"},",":{"x_min":0,"x_max":257,"ha":257,"o":"m 33 -2 l 33 173 l 237 173 l 237 -33 q 237 -55 229 -80 q 221 -105 205 -128 q 189 -150 165 -171 q 141 -193 126 -193 q 121 -193 116 -188 q 112 -184 112 -179 q 112 -170 146 -143 q 164 -128 173 -113 q 203 -69 203 -11 l 203 107 q 203 120 198 128 q 193 136 180 136 q 169 136 163 127 q 158 118 158 106 l 158 -13 q 158 -37 155 -49 q 152 -61 141 -77 q 126 -97 121 -104 q 106 -120 96 -120 q 90 -120 85 -115 q 80 -110 80 -104 q 80 -96 90 -83 q 100 -71 110 -61 q 113 -55 116 -43 q 119 -30 119 -22 q 119 -2 112 -2 z"},"n":{"x_min":0,"x_max":528,"ha":528,"o":"m 38 621 l 308 621 q 362 621 404 600 q 435 585 455 560 q 479 531 489 479 q 496 443 496 400 q 496 377 496 374 q 495 370 488 373 q 473 380 467 392 q 462 443 455 481 q 447 519 426 540 q 408 558 388 569 q 357 585 322 585 l 238 585 q 225 585 221 580 q 218 576 218 566 q 218 554 223 550 q 226 548 236 548 l 315 548 q 340 548 360 538 q 380 528 398 507 q 415 487 421 429 q 426 372 432 363 q 444 347 479 329 q 494 322 495 317 q 496 307 493 304 q 488 299 473 299 q 456 299 433 317 q 410 334 400 356 q 391 378 386 428 q 380 478 360 495 q 333 516 302 516 l 242 516 q 232 516 227 512 q 221 507 221 494 q 221 481 227 477 q 232 473 243 473 l 288 473 q 317 473 335 449 q 341 440 352 379 q 362 317 397 290 q 427 267 464 256 q 477 253 496 250 l 496 3 l 313 3 l 313 365 q 313 381 313 388 q 313 404 311 412 q 309 421 302 430 q 296 438 275 441 q 255 443 231 443 q 224 443 222 443 q 221 443 221 443 l 221 3 l 38 4 z m 168 136 l 204 176 l 154 184 l 129 230 l 104 184 l 53 176 l 88 134 l 83 84 l 130 107 l 178 83 z"},"h":{"x_min":0,"x_max":527,"ha":527,"o":"m 224 -1 l 42 0 l 42 804 l 224 804 l 224 617 l 337 617 q 373 617 410 596 q 439 580 459 556 q 483 528 493 476 q 500 439 500 396 q 500 373 499 371 q 498 366 491 370 q 477 377 471 388 q 465 439 458 478 q 450 516 430 536 q 410 556 389 567 q 362 581 333 581 l 242 581 q 229 581 225 577 q 221 572 221 562 q 221 550 227 546 q 229 545 239 545 l 319 545 q 344 545 364 534 q 384 524 401 504 q 419 483 424 426 q 429 369 436 360 q 447 344 482 326 q 497 319 498 313 q 500 304 496 300 q 492 296 477 296 q 460 296 437 313 q 413 330 404 352 q 395 374 389 424 q 384 474 363 491 q 337 512 305 512 l 246 512 q 236 512 230 508 q 225 504 225 490 q 225 478 230 474 q 236 470 246 470 l 291 470 q 321 470 338 446 q 345 437 355 375 q 366 313 401 287 q 430 263 468 253 q 480 249 499 246 l 499 -1 l 317 -1 l 317 362 q 317 378 317 385 q 317 400 315 409 q 312 418 306 426 q 299 435 279 437 q 259 439 235 439 q 228 439 226 439 q 225 439 224 439 z m 171 132 l 207 172 l 157 180 l 132 227 l 108 180 l 56 172 l 92 130 l 87 80 l 134 104 l 181 79 z"},"z":{"x_min":0,"x_max":523,"ha":523,"o":"m 275 425 l 316 389 l 309 335 l 358 360 l 409 334 l 398 388 l 443 428 l 385 433 l 360 483 l 332 433 l 56 433 l 56 620 l 496 620 l 496 438 l 337 168 l 476 168 q 496 168 496 153 q 496 141 489 138 q 485 135 474 135 l 220 135 q 197 135 175 127 q 154 119 136 105 q 118 92 97 60 q 59 0 54 0 q 33 0 33 7 q 33 12 38 20 q 43 29 44 29 z m 187 52 q 174 43 158 20 q 146 2 133 0 q 117 -3 117 8 q 117 19 134 40 q 151 62 164 72 q 177 82 191 88 q 205 93 224 93 l 476 93 q 486 93 490 91 q 496 88 496 79 q 496 70 490 67 q 484 63 475 63 l 237 63 q 223 63 208 60 q 193 56 187 52 z m 223 20 q 243 24 265 24 l 471 24 q 479 24 487 24 q 493 22 493 12 q 493 2 486 0 q 479 -1 469 -1 l 204 -1 q 203 2 202 4 q 207 15 223 20 z"},"B":{"x_min":0,"x_max":597,"ha":597,"o":"m 462 570 q 452 595 442 620 q 429 647 408 667 q 386 688 339 688 l 249 688 q 236 688 236 666 q 236 646 249 646 l 325 646 q 362 646 384 623 q 400 605 415 569 q 429 532 453 512 q 481 486 517 472 q 528 469 545 464 q 542 458 539 454 q 529 438 513 425 l 471 391 q 504 372 521 355 q 573 303 573 223 q 573 131 509 66 q 446 0 354 0 l 38 0 l 38 794 l 361 794 q 400 794 441 775 q 477 759 496 738 q 534 696 554 639 q 560 621 566 588 q 563 587 561 585 q 543 585 535 597 q 534 599 511 655 q 494 696 470 719 q 424 762 358 762 l 248 762 q 237 762 237 739 q 237 719 249 719 l 350 719 q 382 719 408 706 q 433 694 451 672 q 462 659 471 639 q 484 610 496 583 q 509 556 526 546 q 542 539 558 534 q 561 532 562 531 q 566 526 564 518 q 562 509 554 507 q 553 507 547 507 q 535 509 528 511 q 480 526 462 570 z m 313 479 q 341 479 358 500 q 376 521 376 552 q 376 579 358 598 q 340 618 313 618 l 237 618 l 237 479 z m 234 353 l 282 332 l 277 381 l 313 420 l 258 431 l 236 478 l 212 430 l 158 421 l 198 382 l 190 330 z m 310 171 q 338 171 358 191 q 378 212 378 241 q 378 270 358 291 q 338 312 308 312 l 238 312 l 238 171 z"},"K":{"x_min":0,"x_max":620,"ha":620,"o":"m 245 454 q 242 452 241 451 q 237 446 237 437 q 237 428 238 423 q 239 421 244 418 q 250 418 266 419 q 281 420 297 434 q 313 449 324 470 q 333 490 334 493 l 438 763 q 446 784 450 791 q 459 804 476 804 q 486 804 486 795 q 486 789 482 780 q 479 771 478 768 l 367 475 q 356 446 344 427 q 331 408 311 396 q 297 388 270 382 q 261 381 245 379 q 236 376 236 362 q 236 352 238 347 q 239 346 242 344 q 243 339 279 345 q 316 350 338 364 q 361 379 374 398 q 385 414 396 444 l 525 772 q 530 787 531 788 q 539 804 554 804 q 571 804 571 793 q 571 788 568 782 q 565 776 562 768 l 420 397 l 586 1 l 377 1 l 253 301 q 250 308 245 312 q 240 316 237 313 l 237 302 l 237 1 l 36 1 l 36 803 l 232 803 l 232 527 q 232 505 234 499 q 238 496 241 495 q 251 503 258 515 q 264 528 271 545 l 360 780 q 364 792 371 797 q 378 803 394 803 q 404 803 404 795 q 404 789 399 778 l 307 535 q 298 509 294 499 q 286 481 274 471 q 269 465 252 456 q 249 455 245 454 z m 137 548 l 188 529 l 173 579 l 213 621 l 162 626 l 137 671 l 112 626 l 59 621 l 95 578 l 88 527 z"},"R":{"x_min":0,"x_max":616,"ha":616,"o":"m 229 0 l 36 0 l 36 803 l 331 803 q 381 803 415 792 q 449 781 483 753 q 510 729 535 677 q 557 629 557 604 q 557 597 555 595 q 554 591 549 593 q 542 594 533 596 q 525 599 517 629 q 509 658 496 682 q 479 712 454 733 q 405 771 335 771 l 238 771 q 228 771 228 749 q 228 729 238 729 l 329 729 q 354 729 371 725 q 387 721 409 710 q 439 694 458 651 q 485 590 492 579 q 504 562 523 553 q 541 544 558 536 q 566 530 558 524 q 550 518 531 518 q 508 518 486 536 q 469 549 459 567 q 439 612 431 630 q 417 663 396 678 q 367 696 330 696 l 241 696 q 233 696 231 693 q 229 688 229 673 q 229 654 241 654 l 318 654 q 336 654 350 649 q 364 644 378 630 q 392 616 406 578 q 421 539 438 522 q 462 497 512 480 q 528 475 556 468 q 556 449 555 438 q 551 402 536 374 q 521 346 498 323 q 491 316 477 305 l 588 0 l 385 -1 l 271 338 l 313 379 l 257 384 l 243 436 l 303 436 q 341 436 359 456 q 378 476 378 531 q 378 591 351 610 q 336 621 297 621 l 228 621 l 228 436 l 212 384 l 159 376 l 196 338 l 187 284 l 229 305 z"},"T":{"x_min":0,"x_max":585,"ha":585,"o":"m 399 623 l 399 1 l 210 1 l 210 393 q 243 395 264 404 q 297 420 330 456 q 350 478 356 505 q 362 533 362 566 q 362 584 362 593 q 362 615 366 628 q 369 640 379 647 q 390 654 406 654 q 412 654 416 654 l 542 654 q 560 654 560 638 q 560 630 557 628 q 553 623 541 623 z m 38 626 l 38 803 l 534 803 q 540 803 550 802 q 561 801 561 788 q 561 780 553 776 q 546 772 536 772 l 411 772 q 370 772 343 762 q 317 753 288 726 q 259 700 248 646 q 242 588 237 531 q 233 526 225 519 q 218 512 213 512 q 208 512 208 521 l 208 626 z m 214 437 q 208 440 208 453 q 208 463 213 465 q 229 471 242 479 q 265 494 274 509 q 282 525 285 594 q 288 663 317 695 q 336 714 356 721 q 376 728 406 728 l 540 728 q 560 728 560 714 q 560 698 541 698 l 412 698 q 370 698 344 675 q 321 654 321 585 q 320 516 308 497 q 288 467 255 448 q 227 432 214 437 z m 229 177 l 270 138 l 261 85 l 312 107 l 362 86 l 349 138 l 387 177 l 332 184 l 307 230 l 282 184 z"},"P":{"x_min":0,"x_max":589,"ha":589,"o":"m 229 0 l 36 0 l 36 803 l 331 803 q 381 803 415 792 q 449 781 483 753 q 510 729 535 677 q 557 629 557 604 q 557 597 555 595 q 554 591 549 593 q 542 594 533 596 q 525 599 517 629 q 509 658 496 682 q 479 712 454 733 q 405 771 335 771 l 238 771 q 228 771 228 749 q 228 729 238 729 l 329 729 q 354 729 371 725 q 387 721 409 710 q 439 694 458 651 q 485 590 492 579 q 504 562 523 553 q 541 544 558 536 q 566 530 558 524 q 550 518 531 518 q 508 518 486 536 q 469 549 459 567 q 439 612 431 630 q 417 663 396 678 q 367 696 330 696 l 241 696 q 233 696 231 693 q 229 688 229 673 q 229 654 241 654 l 318 654 q 336 654 350 649 q 364 644 378 630 q 392 616 406 578 q 421 539 438 522 q 462 497 512 480 q 528 475 556 468 q 552 429 544 407 q 518 338 455 296 q 415 270 347 258 q 300 250 252 250 q 243 250 235 250 q 232 250 229 251 z m 228 621 l 228 436 l 212 384 l 159 376 l 196 338 l 187 284 l 237 309 l 287 283 l 276 338 l 313 379 l 257 384 l 243 436 l 303 436 q 341 436 359 456 q 378 476 378 531 q 378 591 351 610 q 336 621 297 621 z"},"t":{"x_min":0,"x_max":384,"ha":384,"o":"m 235 474 l 235 277 q 235 254 238 233 q 240 211 247 204 q 254 197 269 194 q 284 191 306 191 q 316 191 325 191 q 335 191 344 192 q 353 192 354 191 q 356 189 356 180 q 356 176 355 170 q 355 168 354 164 q 353 163 336 161 q 320 158 297 158 q 275 158 258 161 q 240 164 228 171 q 206 185 202 239 q 198 294 160 342 q 136 372 84 388 q 67 394 37 399 l 37 803 l 235 803 l 235 673 l 179 673 l 148 723 l 121 674 l 65 668 l 105 623 l 94 571 l 148 590 l 204 575 l 194 630 l 250 668 l 358 668 l 358 474 z m 136 301 q 151 280 158 218 q 164 156 188 137 q 205 123 234 118 q 263 112 297 112 q 311 112 323 112 q 335 112 345 113 q 353 113 354 112 q 358 110 358 99 q 358 88 352 83 q 346 79 305 79 q 261 79 229 86 q 184 96 162 117 q 130 146 124 209 q 118 272 101 288 q 85 304 58 312 q 46 316 42 320 q 37 324 37 334 q 37 345 42 348 q 52 354 86 338 q 121 322 136 301 z m 49 267 q 58 262 66 254 q 74 246 74 237 q 74 198 82 166 q 95 117 125 86 q 156 54 204 41 q 241 31 288 31 q 313 31 329 33 q 345 34 355 35 q 359 32 359 22 q 359 11 351 9 q 343 7 327 5 q 311 4 285 4 q 231 4 190 14 q 134 29 102 61 q 71 93 56 145 q 41 196 41 238 q 41 258 44 264 q 46 269 49 267 z"},"M":{"x_min":0,"x_max":930,"ha":930,"o":"m 121 809 l 312 809 l 471 312 l 628 808 l 898 808 l 898 5 l 705 6 l 705 437 l 577 8 l 366 8 l 234 432 l 234 7 l 41 7 l 41 247 q 62 251 74 254 q 112 266 142 288 q 159 301 175 328 q 195 361 195 390 l 195 562 l 155 673 l 155 414 q 155 388 151 372 q 147 355 135 340 q 122 325 98 312 q 74 298 61 298 q 51 298 45 304 q 39 310 42 317 q 44 321 70 332 q 96 343 107 357 q 115 367 118 380 q 121 393 121 408 q 121 418 121 422 z m 41 422 l 41 756 q 41 768 41 773 q 41 790 45 799 q 48 807 61 807 q 71 807 75 798 q 79 789 79 773 q 79 762 79 756 l 79 421 q 79 404 74 393 q 70 382 54 377 q 46 374 43 385 q 41 396 41 404 q 41 417 41 422 z m 737 554 l 786 534 l 772 583 l 809 621 l 756 629 l 733 677 l 709 629 l 661 619 l 697 582 l 689 536 z m 471 310 l 447 261 l 390 254 l 436 214 l 424 161 l 474 187 l 526 158 l 514 214 l 553 256 l 497 260 z"},"g":{"x_min":0,"x_max":504,"ha":504,"o":"m 251 619 l 477 619 l 477 -15 q 477 -104 408 -154 q 346 -197 253 -197 q 157 -197 102 -154 q 37 -104 37 -28 q 37 -23 37 -19 q 38 -18 38 -17 l 223 3 l 208 -52 l 257 -32 l 306 -53 l 295 -2 l 334 38 l 280 44 l 256 89 l 232 43 q 214 43 203 45 q 132 55 84 110 q 57 140 45 185 q 36 217 36 245 q 36 250 36 255 q 36 256 37 259 q 56 262 69 264 q 105 274 132 296 q 159 319 175 384 q 190 450 217 464 q 232 472 264 474 q 296 476 300 479 l 300 509 q 290 515 262 515 q 240 515 223 511 q 205 507 188 497 q 154 477 146 420 q 138 363 120 340 q 108 326 77 309 q 46 293 41 300 q 40 303 40 304 q 39 310 39 315 q 39 324 42 326 q 62 335 73 341 q 84 347 93 360 q 107 379 116 433 q 124 488 152 514 q 179 539 219 546 q 260 550 301 554 q 301 555 301 556 q 303 566 303 570 q 303 581 298 582 q 280 588 251 588 q 217 588 185 577 q 154 567 125 541 q 97 515 85 471 q 76 429 67 388 q 57 382 44 381 q 40 381 40 398 q 40 435 53 477 q 69 532 97 559 q 125 586 165 602 q 204 619 251 619 z m 266 441 q 231 441 218 414 q 204 388 204 331 q 204 272 213 249 q 226 216 264 216 l 301 216 l 302 441 z"},"j":{"x_min":0,"x_max":300,"ha":300,"o":"m 91 653 l 91 804 l 277 804 l 277 653 z m 92 621 l 278 621 l 278 380 q 264 379 256 377 q 207 366 181 344 q 125 296 125 224 l 125 36 q 125 12 122 -1 q 120 -13 109 -27 q 94 -45 58 -50 q 40 -53 38 -51 q 34 -47 34 -37 q 34 -30 37 -26 q 47 -23 61 -21 q 74 -18 83 -5 q 89 4 91 14 q 92 24 92 43 z m 190 299 q 206 319 236 329 q 266 339 271 335 q 276 329 276 321 q 276 313 272 306 q 256 300 242 294 q 227 288 217 276 q 208 264 204 252 q 201 240 201 221 l 201 17 q 201 -15 191 -38 q 180 -62 157 -83 q 134 -105 92 -117 q 50 -129 38 -125 q 33 -124 33 -112 q 33 -106 36 -99 q 62 -94 90 -84 q 117 -75 135 -56 q 149 -42 155 -24 q 162 -5 162 17 l 162 214 q 162 241 168 261 q 174 280 190 299 z m 217 -124 q 185 -158 132 -178 q 89 -194 53 -194 q 48 -194 44 -194 q 38 -192 37 -192 q 31 -190 31 -179 q 31 -171 35 -168 q 72 -162 112 -149 q 152 -136 180 -111 q 204 -90 220 -61 q 238 -26 238 11 l 238 215 q 238 233 245 246 q 251 260 265 262 q 272 264 275 257 q 277 253 277 239 q 277 228 277 222 l 277 22 q 277 -21 260 -58 q 244 -96 217 -124 z m 157 524 l 107 518 l 145 477 l 132 425 l 183 447 l 231 425 l 223 476 l 259 519 l 205 523 l 182 571 z"},"i":{"x_min":0,"x_max":241,"ha":241,"o":"m 38 804 l 213 804 l 213 653 l 38 653 z m 38 621 l 213 621 l 213 0 l 38 0 z m 104 439 l 53 432 l 90 392 l 80 341 l 129 364 l 175 340 l 164 393 l 201 433 l 152 440 l 128 489 z"},"y":{"x_min":0,"x_max":553,"ha":553,"o":"m 193 45 l 37 620 l 212 620 l 287 345 l 357 621 l 531 621 l 471 378 q 452 375 419 372 q 386 369 364 356 q 330 337 312 304 q 297 279 286 232 l 238 38 q 232 15 228 3 q 218 -23 201 -37 q 192 -44 167 -48 q 142 -53 119 -53 q 99 -53 93 -49 q 89 -46 89 -39 q 89 -31 95 -28 q 101 -24 122 -24 q 150 -24 162 -22 q 173 -21 184 -9 q 196 2 196 24 q 196 34 193 45 z m 93 -189 q 90 -184 90 -179 q 90 -173 94 -170 q 146 -169 195 -160 q 245 -151 277 -121 q 310 -91 335 -14 q 347 23 371 129 q 389 214 404 242 q 406 248 414 253 q 421 258 427 258 q 434 258 434 249 q 434 247 432 242 q 428 224 386 54 q 365 -29 347 -69 q 324 -120 286 -152 q 259 -174 209 -186 q 170 -195 129 -195 q 96 -195 93 -189 z m 93 -122 q 91 -112 91 -108 q 91 -100 96 -97 q 135 -96 168 -92 q 202 -88 220 -77 q 253 -55 277 35 q 295 115 315 200 q 335 286 362 306 q 378 318 400 324 q 423 329 440 329 q 450 329 453 329 q 457 328 457 321 q 457 311 451 307 q 446 303 419 297 q 393 292 383 282 q 361 258 339 168 q 304 18 302 11 q 276 -76 241 -99 q 221 -112 184 -119 q 147 -127 119 -127 q 96 -127 93 -122 z m 139 400 l 128 349 l 176 372 l 223 350 l 211 401 l 249 438 l 197 444 l 173 490 l 149 444 l 100 437 z"},".":{"x_min":0,"x_max":255,"ha":255,"o":"m 33 180 l 237 180 l 237 -4 l 33 -4 z"},"p":{"x_min":0,"x_max":546,"ha":546,"o":"m 227 -177 l 40 -177 l 40 620 l 292 620 q 342 620 381 604 q 420 588 453 556 q 482 528 500 471 q 514 424 514 390 q 514 383 512 379 q 510 376 505 376 q 502 376 496 379 q 491 381 486 384 q 479 417 466 457 q 454 497 429 528 q 404 559 355 573 q 319 584 274 584 q 236 584 230 579 q 225 573 225 563 q 225 547 232 546 q 286 546 325 540 q 365 533 387 512 q 425 475 438 404 q 444 369 459 353 q 469 342 491 333 q 512 325 516 317 q 520 309 516 303 q 512 296 505 296 q 488 296 468 305 q 443 317 423 338 q 411 352 398 410 q 385 469 356 489 q 341 500 316 505 q 290 510 268 510 q 254 510 245 509 q 236 508 233 507 q 230 506 228 500 q 226 496 226 488 q 226 474 232 472 q 261 472 284 470 q 307 467 326 456 q 345 445 355 413 q 388 321 391 316 q 420 278 472 261 q 516 246 518 250 q 515 207 509 181 q 490 104 440 60 q 400 25 309 9 q 279 4 227 0 z m 227 165 l 208 129 l 156 121 l 195 83 l 188 32 l 236 56 l 282 34 l 275 85 l 310 127 l 254 130 l 244 178 l 271 178 q 299 178 314 205 q 333 239 333 313 q 333 378 317 407 q 302 436 271 436 l 227 436 z"},"X":{"x_min":0,"x_max":734,"ha":734,"o":"m 481 396 l 695 1 l 476 1 l 366 196 l 250 0 l 31 0 l 256 397 l 43 802 l 259 802 l 373 598 l 495 801 l 672 801 q 679 801 682 801 q 704 801 701 786 q 698 773 692 769 q 686 765 673 765 l 584 765 q 571 765 558 762 q 546 758 534 753 q 498 737 471 688 l 403 567 q 397 558 397 556 q 397 553 403 543 q 408 534 412 529 q 421 521 424 528 l 493 645 q 505 666 519 681 q 536 700 552 709 q 569 718 592 719 q 614 721 635 721 q 649 721 655 720 q 662 718 659 709 q 656 699 652 696 q 648 693 633 690 q 625 691 620 691 q 607 691 595 689 q 582 687 573 681 q 548 665 528 629 l 446 490 q 442 484 442 479 q 442 473 449 462 q 456 451 458 448 q 465 440 470 447 l 567 614 q 578 634 588 640 q 597 646 612 646 q 620 646 620 639 q 620 634 614 624 q 608 613 603 604 z m 278 313 l 225 304 l 265 267 l 256 216 l 304 238 l 351 218 l 343 269 l 383 306 l 330 312 l 303 358 z"},"*":{"x_min":0,"x_max":292,"ha":292,"o":"m 120 805 l 177 805 q 178 788 179 770 q 181 752 186 746 q 191 741 220 750 q 248 759 249 756 l 263 710 q 244 702 227 695 q 210 688 206 680 q 204 675 215 659 q 225 643 236 627 l 192 596 q 181 611 175 618 q 155 641 148 641 q 139 642 120 621 q 113 613 101 597 l 58 635 q 71 647 76 654 q 93 674 90 683 q 88 690 60 700 q 46 705 32 712 l 53 760 q 69 754 77 751 q 104 743 112 746 q 117 748 118 767 q 119 786 120 805 z m 116 688 l 107 646 l 151 662 l 192 644 l 183 688 l 217 723 l 170 728 l 148 770 l 128 729 l 79 721 z"},"Y":{"x_min":0,"x_max":724,"ha":724,"o":"m 665 799 q 676 800 681 800 q 702 800 696 785 q 691 774 685 771 q 679 768 668 768 l 590 768 q 542 768 521 748 q 516 744 504 726 q 493 709 486 696 l 391 521 q 389 515 389 511 q 389 505 393 496 q 396 487 405 480 q 413 473 416 479 l 512 661 q 521 678 532 689 q 542 700 556 708 q 571 716 591 717 q 612 719 631 720 q 638 721 641 721 q 660 721 660 710 q 660 707 657 702 q 651 690 632 688 q 616 687 598 684 q 579 682 567 673 q 554 664 546 652 q 542 646 531 625 l 432 432 q 430 427 430 423 q 430 414 437 403 q 443 392 448 388 q 453 385 454 388 l 574 614 q 580 626 590 633 q 599 639 612 639 q 621 639 621 632 q 621 626 612 612 q 604 597 597 585 l 462 333 l 462 0 l 271 0 l 271 338 l 38 801 l 247 801 l 370 551 l 504 799 z m 344 183 l 288 177 l 327 131 l 319 79 l 367 105 l 416 79 l 407 130 l 444 172 l 390 182 l 368 227 z"},"c":{"x_min":0,"x_max":529,"ha":529,"o":"m 272 -7 q 162 -7 101 59 q 57 106 43 182 q 40 215 38 248 q 55 252 67 254 q 135 274 154 312 q 182 392 195 424 q 217 480 271 480 q 309 480 333 448 q 358 416 358 376 q 358 370 341 370 q 334 370 331 371 q 329 371 316 410 q 304 448 274 448 q 238 448 222 401 q 212 369 212 319 q 212 220 237 181 q 245 169 262 162 l 249 122 l 197 111 l 235 77 l 221 27 l 272 45 l 322 25 l 307 77 l 345 115 l 292 122 q 282 152 281 159 q 281 160 281 162 q 288 167 293 171 q 307 186 314 200 q 321 215 323 230 q 325 245 326 259 l 505 248 q 502 215 498 182 q 482 105 439 59 q 379 -7 272 -7 z m 39 317 q 62 327 78 335 q 94 344 99 356 q 117 413 135 471 q 174 552 271 552 q 344 552 385 500 q 438 434 428 382 q 427 376 416 376 q 410 376 404 379 q 392 437 362 478 q 328 523 270 523 q 190 523 159 446 q 140 391 122 336 q 117 329 99 316 q 77 300 59 297 q 35 294 35 307 q 35 312 39 317 z m 38 379 q 30 442 79 519 q 146 622 271 622 q 364 622 425 562 q 469 518 491 447 q 510 388 503 385 q 489 382 488 382 q 481 382 478 384 q 464 470 417 529 q 365 595 271 595 q 176 595 124 529 q 92 451 61 372 q 57 369 48 371 q 38 374 38 379 z"},"!":{"x_min":0,"x_max":255,"ha":255,"o":"m 41 177 l 225 177 l 225 7 l 41 7 z m 38 809 l 225 809 l 225 363 l 204 220 l 59 220 l 38 365 z m 133 518 l 182 496 l 171 548 l 206 587 l 157 593 l 133 642 l 108 593 l 58 587 l 95 546 l 86 494 z"},"/":{"x_min":0,"x_max":412,"ha":412,"o":"m 313 804 q 322 800 322 788 q 322 781 321 778 q 319 771 318 768 l 67 26 q 62 13 55 5 q 47 -4 38 1 q 31 4 31 14 q 31 22 37 37 l 284 777 q 288 789 296 798 q 304 807 313 804 z m 388 783 q 397 779 397 768 q 397 757 392 741 l 149 23 q 146 12 136 3 q 127 -5 119 0 q 112 4 112 12 q 112 15 114 21 q 116 27 118 32 l 359 751 q 364 768 371 777 q 378 787 388 783 z"},"6":{"x_min":0,"x_max":580,"ha":580,"o":"m 277 802 l 482 802 l 351 561 q 387 554 407 546 q 470 524 501 483 q 532 441 545 401 q 554 373 554 346 q 554 340 553 334 q 553 332 552 329 q 526 327 512 323 q 466 312 444 288 q 407 225 389 195 q 356 140 292 140 q 235 140 203 189 q 174 238 146 286 q 129 306 99 318 q 70 327 41 336 q 38 341 46 368 q 54 396 64 414 z m 39 183 q 38 188 38 196 q 38 204 40 208 q 44 213 51 211 q 86 130 138 79 q 196 24 293 24 q 384 24 441 75 q 483 139 526 204 q 537 213 544 213 q 550 213 550 204 q 550 200 549 196 q 547 188 546 183 q 515 102 465 57 q 398 -3 294 -3 q 208 -3 155 28 q 95 62 39 183 z m 34 263 q 30 267 30 273 q 30 285 40 288 q 52 291 75 282 q 98 273 113 259 q 146 181 185 140 q 228 96 293 96 q 370 96 412 154 q 442 204 471 255 q 481 269 503 279 q 525 288 541 288 q 545 288 550 287 q 555 284 555 278 q 555 269 548 264 q 532 258 523 255 q 505 249 496 234 q 434 128 424 117 q 377 65 292 65 q 209 65 159 121 q 138 145 96 228 q 87 248 61 255 q 36 262 34 263 z m 196 617 l 232 579 l 226 529 l 274 553 l 322 529 l 311 581 l 347 621 l 296 624 l 271 671 l 247 624 z m 293 391 q 252 391 235 355 q 221 328 221 281 q 221 234 234 207 q 251 171 292 171 q 338 171 354 205 q 366 229 366 280 q 366 344 345 370 q 327 391 293 391 z"},"r":{"x_min":0,"x_max":489,"ha":489,"o":"m 268 512 l 232 512 q 226 512 218 504 q 215 503 212 496 q 212 477 243 473 q 275 469 288 457 q 301 445 306 433 q 311 421 311 403 l 311 331 q 311 322 307 317 q 303 311 293 311 q 281 311 278 317 q 275 323 275 333 l 275 390 q 275 405 273 414 q 271 422 261 429 q 251 437 232 437 q 218 437 218 430 l 218 -6 l 38 -6 l 38 617 l 269 617 q 312 617 345 602 q 378 588 407 556 q 429 532 443 498 q 457 463 457 433 l 457 354 q 457 346 453 339 q 448 333 438 333 q 429 333 425 339 q 421 345 421 354 l 421 437 q 421 465 405 497 q 393 522 378 538 q 356 562 332 573 q 307 585 275 585 l 236 585 q 225 585 220 580 q 215 575 215 561 q 215 544 264 543 q 313 542 346 509 q 365 488 375 466 q 384 444 384 413 l 384 342 q 384 321 366 321 q 355 321 351 327 q 346 332 346 353 l 346 422 q 346 442 340 458 q 333 473 317 489 q 305 501 294 506 q 283 512 268 512 z m 180 85 l 171 137 l 204 176 l 154 183 l 128 230 l 104 183 l 51 175 l 90 137 l 83 84 l 130 108 z"},"2":{"x_min":0,"x_max":584,"ha":584,"o":"m 40 510 q 30 513 49 586 q 71 672 123 726 q 196 801 314 801 q 412 801 472 745 q 545 677 545 588 q 545 582 544 581 q 542 579 531 582 q 520 585 516 591 q 509 616 502 641 q 482 693 445 726 q 394 771 316 771 q 210 771 147 704 q 103 654 82 577 q 75 542 68 507 q 56 504 40 510 z m 117 504 q 115 506 115 518 q 115 585 149 640 q 202 726 312 726 q 402 726 444 665 q 475 591 488 565 q 494 552 538 531 q 556 523 554 519 q 551 514 544 509 q 538 504 535 505 q 508 509 484 526 q 461 544 456 554 q 423 638 417 646 q 382 697 310 697 q 209 697 170 604 q 157 553 146 502 q 138 502 134 502 q 121 502 117 504 z m 219 497 q 208 496 202 496 q 195 496 190 499 q 188 501 188 510 q 188 554 212 595 q 246 654 308 654 q 365 654 395 604 q 417 546 425 531 q 446 493 493 471 q 508 464 537 457 q 528 440 522 430 q 506 402 490 379 q 478 362 453 336 q 441 323 424 306 l 293 171 l 238 171 l 213 217 l 188 171 l 136 166 l 175 128 l 168 77 l 214 100 l 262 80 l 253 130 l 293 165 l 559 165 l 559 0 l 43 -1 l 43 157 l 327 448 q 372 495 372 560 q 372 588 355 607 q 338 626 305 626 q 265 626 244 586 q 231 541 219 497 z"},"9":{"x_min":0,"x_max":581,"ha":581,"o":"m 550 616 q 552 611 552 604 q 552 596 549 591 q 546 586 538 588 q 504 669 451 720 q 394 775 296 775 q 205 775 148 724 q 105 660 63 596 q 53 586 46 586 q 39 586 39 596 q 39 599 40 604 q 42 611 44 616 q 74 697 124 742 q 191 802 296 802 q 381 802 434 771 q 495 737 550 616 z m 555 536 q 559 532 559 526 q 559 514 549 512 q 538 508 514 517 q 491 526 476 540 q 444 618 404 659 q 362 704 296 704 q 220 704 177 645 q 147 594 118 544 q 108 530 86 521 q 64 511 48 511 q 45 511 39 512 q 34 515 34 521 q 34 530 41 535 q 57 541 66 544 q 84 550 93 565 q 155 671 165 682 q 212 734 297 734 q 380 734 430 679 q 452 654 493 571 q 503 551 528 544 q 554 538 555 536 z m 282 192 l 274 146 l 321 166 l 368 145 l 361 197 l 397 230 l 346 242 l 321 283 l 297 241 q 296 238 278 238 q 231 238 184 254 q 119 274 88 316 q 57 358 45 399 q 36 428 36 454 q 36 460 37 465 q 37 467 38 470 q 63 472 78 476 q 123 488 146 512 q 182 574 200 604 q 233 659 297 659 q 354 659 387 610 q 415 562 444 513 q 460 493 490 481 q 519 472 548 463 q 551 458 543 431 q 535 404 525 385 l 312 -3 l 107 -3 l 240 224 z m 294 408 q 337 408 355 445 q 371 473 371 521 q 371 569 358 594 q 340 629 297 629 q 253 629 236 594 q 223 569 223 519 q 223 469 234 445 q 251 408 294 408 z"}," ":{"x_min":0,"x_max":320,"ha":320,"o":""},"I":{"x_min":0,"x_max":271,"ha":271,"o":"m 40 804 l 242 804 l 242 0 l 40 -1 z m 145 493 l 123 443 l 71 440 l 108 396 l 91 343 l 146 369 l 196 344 l 184 396 l 221 439 l 170 442 z"},"H":{"x_min":0,"x_max":604,"ha":604,"o":"m 573 2 l 379 2 l 379 312 l 236 312 l 236 2 l 39 2 l 39 803 l 232 803 l 232 486 l 379 486 l 379 803 l 573 803 l 573 698 q 549 695 534 690 q 489 676 455 640 q 429 612 421 543 q 412 473 402 463 q 396 458 388 456 q 379 454 369 454 l 254 454 q 241 454 238 448 q 235 444 235 432 q 235 421 240 416 q 245 411 254 411 l 364 411 q 382 411 400 416 q 418 421 432 434 q 454 453 456 516 q 459 579 480 606 q 501 634 532 647 q 546 653 565 656 q 572 657 572 644 q 572 631 567 626 q 548 618 534 612 q 521 605 512 596 q 496 579 492 508 q 488 438 457 412 q 437 395 419 388 q 401 380 371 380 l 255 380 q 246 380 242 378 q 236 373 236 362 q 236 350 241 346 q 246 343 254 343 l 387 343 q 418 343 441 353 q 463 362 487 383 q 520 413 528 477 q 536 541 546 563 q 552 575 567 575 q 573 575 573 570 z m 140 546 l 188 526 l 179 577 l 217 615 l 164 621 l 138 672 l 113 621 l 61 613 l 98 576 l 90 524 z"},"4":{"x_min":0,"x_max":622,"ha":622,"o":"m 402 801 l 592 801 l 592 0 l 397 -1 l 397 179 l 62 179 q 46 179 40 181 q 34 182 32 190 q 29 201 72 208 q 115 215 143 230 q 159 239 176 259 q 194 279 206 301 l 397 639 l 397 724 l 172 333 q 156 304 146 292 q 135 280 122 273 q 110 265 88 258 q 66 252 45 252 q 36 252 34 254 q 31 256 31 262 q 31 273 38 279 q 39 279 77 288 q 97 293 107 300 q 117 308 126 322 q 129 328 141 348 z m 332 801 q 340 800 340 794 q 340 790 338 784 q 335 779 330 771 l 95 354 q 89 344 80 337 q 71 330 58 326 q 53 323 49 325 q 46 326 46 329 q 46 337 54 349 q 61 362 62 364 l 300 780 q 305 790 313 796 q 321 802 332 801 z m 397 570 l 271 348 l 396 348 l 436 312 l 432 262 l 479 282 l 526 262 l 520 312 l 557 351 l 504 359 l 479 404 l 454 358 l 397 356 z"},"D":{"x_min":0,"x_max":635,"ha":635,"o":"m 500 346 q 486 456 476 533 q 466 609 437 642 q 414 666 396 677 q 371 691 340 691 l 259 691 q 246 691 242 686 q 238 681 238 671 q 238 658 243 654 q 246 652 257 652 l 323 652 q 347 652 370 638 q 393 623 404 606 q 436 555 444 446 q 452 337 469 312 q 489 281 542 256 q 559 248 590 238 q 598 233 578 173 q 554 107 520 72 q 485 38 441 19 q 397 0 344 0 l 37 0 l 37 800 l 335 800 q 494 800 569 651 q 585 620 595 545 q 605 471 605 413 q 605 371 599 364 q 594 358 583 367 q 573 375 571 384 q 570 498 550 584 q 529 670 479 713 q 446 741 412 754 q 379 766 336 766 l 259 766 q 249 766 246 763 q 239 759 239 746 q 239 728 246 726 q 250 725 261 725 l 347 725 q 384 725 418 705 q 445 690 468 662 q 501 623 512 538 q 522 454 532 364 q 545 340 571 327 q 598 313 602 308 q 604 304 604 299 q 604 286 594 284 q 577 282 547 301 q 517 321 500 346 z m 365 196 q 388 214 396 262 q 404 311 404 393 q 404 472 391 525 q 367 619 306 619 l 240 619 l 240 171 l 216 118 l 161 111 l 201 70 l 188 17 l 240 44 l 295 19 l 282 70 l 322 112 l 265 118 l 248 167 q 258 166 265 166 q 292 166 311 171 q 341 178 365 196 z"},"0":{"x_min":0,"x_max":605,"ha":605,"o":"m 556 616 q 558 611 558 604 q 558 596 555 591 q 552 586 545 588 q 510 669 457 720 q 400 775 303 775 q 212 775 154 724 q 112 660 70 596 q 59 586 52 586 q 46 586 46 596 q 46 599 46 604 q 48 611 50 616 q 80 697 130 742 q 197 802 302 802 q 388 802 440 771 q 501 737 556 616 z m 562 536 q 565 532 565 526 q 565 514 555 512 q 544 508 521 517 q 497 526 482 540 q 450 618 411 659 q 368 704 303 704 q 227 704 187 645 q 158 595 129 546 q 118 531 95 521 q 71 511 54 511 q 51 511 46 512 q 40 515 40 521 q 40 530 47 535 q 63 540 75 545 q 97 554 113 578 q 140 625 168 673 q 216 734 304 734 q 387 734 437 679 q 458 654 499 571 q 509 551 534 544 q 560 538 562 536 z m 35 465 q 61 468 76 471 q 122 483 152 512 q 154 513 207 604 q 240 659 304 659 q 361 659 393 610 q 421 562 450 513 q 471 488 522 471 q 539 467 571 461 q 572 453 572 446 q 577 409 577 370 q 577 281 560 212 q 537 116 482 62 q 415 -4 304 -4 q 191 -4 124 62 q 71 116 46 214 q 29 288 29 373 q 29 410 30 430 q 32 450 35 465 z m 293 166 l 278 123 l 229 108 l 266 74 l 262 21 l 305 45 l 354 21 l 344 73 l 379 112 l 329 124 l 312 166 q 350 184 364 221 q 388 283 388 399 q 388 520 376 564 q 358 629 304 629 q 262 629 242 585 q 216 530 216 396 q 216 286 240 225 q 254 188 293 166 z"},"F":{"x_min":0,"x_max":530,"ha":530,"o":"m 239 621 l 239 497 l 183 497 l 156 544 l 134 496 l 79 492 l 117 449 l 113 401 l 160 420 l 209 400 l 200 453 l 249 490 l 502 490 l 502 312 l 239 312 l 239 1 l 39 1 l 39 804 l 479 804 q 491 804 495 802 q 502 798 502 787 q 502 770 479 770 l 262 770 q 248 770 243 765 q 238 760 238 750 q 238 737 244 733 q 249 729 260 729 l 478 729 q 490 729 493 728 q 501 724 501 712 q 501 704 496 699 q 492 695 478 695 l 267 695 q 250 695 245 690 q 239 686 239 674 q 239 662 246 658 q 253 655 266 655 l 476 655 q 488 655 495 653 q 502 650 502 639 q 502 628 495 625 q 488 621 475 621 z"},"k":{"x_min":0,"x_max":529,"ha":529,"o":"m 393 305 l 502 1 l 315 1 l 239 200 q 238 206 235 210 q 230 215 226 214 q 219 212 219 206 l 219 1 l 38 1 l 38 804 l 218 804 l 218 429 q 218 411 221 406 q 229 398 237 412 q 242 422 247 441 l 295 590 q 298 603 306 612 q 313 621 324 621 q 338 621 338 611 q 338 604 335 598 q 332 592 329 586 l 275 410 q 271 397 267 389 q 263 381 255 374 q 240 366 232 362 q 223 358 223 343 q 223 328 240 328 q 257 328 278 343 q 285 348 294 362 q 304 377 307 389 l 371 590 q 375 605 379 611 q 386 621 398 621 q 412 621 412 609 q 412 603 409 593 q 405 584 404 580 l 346 389 q 338 362 326 343 q 314 324 295 309 q 285 302 267 296 q 249 289 231 283 q 225 276 225 271 q 227 262 228 258 q 229 253 240 253 q 253 253 271 258 q 290 263 305 271 q 332 285 348 307 q 362 326 372 360 l 446 589 q 450 604 453 608 q 460 621 472 621 q 488 621 488 610 q 488 605 487 601 q 483 590 482 586 z m 131 554 l 178 536 l 166 582 l 203 618 l 152 625 l 130 671 l 107 626 l 59 617 l 93 581 l 84 532 z"},"u":{"x_min":0,"x_max":525,"ha":525,"o":"m 495 -2 l 225 -2 q 171 -2 129 19 q 98 34 78 59 q 54 88 45 132 q 37 176 37 219 q 38 242 38 245 q 38 249 46 246 q 60 238 66 227 q 71 176 78 138 q 86 100 107 79 q 125 61 146 50 q 176 34 211 34 l 295 34 q 308 34 312 38 q 315 43 315 53 q 315 65 310 69 q 307 71 297 71 l 218 71 q 193 71 173 81 q 153 91 137 110 q 118 132 112 189 q 107 246 101 255 q 89 271 54 289 q 39 296 38 302 q 34 320 56 320 q 75 320 99 302 q 123 284 134 260 q 142 241 147 191 q 153 141 173 124 q 200 103 231 103 l 291 103 q 301 103 306 107 q 312 112 312 125 q 312 138 306 142 q 301 146 290 146 l 246 146 q 216 146 198 170 q 192 179 181 240 q 171 302 136 329 q 106 352 69 362 q 56 366 38 369 l 38 616 l 220 616 l 220 254 q 220 238 220 230 q 220 215 222 206 q 224 197 232 188 q 238 180 258 178 q 278 176 302 176 q 309 176 311 176 q 312 176 312 176 l 312 616 l 495 615 z m 330 429 l 367 388 l 359 335 l 410 360 l 461 336 l 447 389 l 488 429 l 431 436 l 406 485 l 382 437 z"},"U":{"x_min":0,"x_max":594,"ha":594,"o":"m 301 -4 q 177 -4 117 55 q 81 90 47 182 q 46 187 44 204 q 42 221 42 225 q 42 231 42 238 q 44 250 50 250 q 58 250 69 233 q 102 159 135 86 q 191 29 300 29 q 429 29 487 104 q 518 146 535 233 q 540 257 548 257 q 554 257 559 246 q 563 236 563 217 q 563 204 559 184 q 539 96 479 48 q 413 -4 301 -4 z m 495 250 q 477 167 449 129 q 402 66 301 66 q 184 66 141 149 q 121 208 100 267 q 88 287 75 293 q 60 297 45 303 q 39 307 39 319 q 39 329 45 332 q 57 338 83 324 q 110 311 127 288 q 138 275 157 204 q 188 98 300 98 q 401 98 438 179 q 456 231 474 285 q 479 293 485 302 q 504 324 556 331 q 562 331 562 319 q 562 304 555 302 q 539 295 523 288 q 500 275 495 250 z m 40 802 l 226 802 l 226 246 q 226 213 241 196 q 260 173 303 173 q 340 173 359 193 q 378 212 378 245 l 378 803 l 563 803 l 563 376 q 546 373 536 371 q 473 357 447 324 q 431 304 414 240 q 388 143 299 143 q 215 143 194 213 q 162 316 148 330 q 120 357 77 370 q 63 373 40 377 z m 58 624 l 97 584 l 86 530 l 137 554 l 184 533 l 175 585 l 212 623 l 160 631 l 135 677 l 111 630 z"},"o":{"x_min":0,"x_max":524,"ha":524,"o":"m 404 335 q 376 312 347 216 q 325 142 267 142 q 204 142 180 228 q 164 288 141 317 q 121 342 74 359 q 59 364 30 371 q 31 396 33 412 q 46 506 96 558 q 139 603 204 617 q 225 621 259 622 l 245 576 l 195 566 l 228 533 l 220 482 l 270 505 l 316 484 l 303 535 l 337 570 l 287 577 l 271 623 q 325 621 356 609 q 407 588 443 544 q 479 499 493 431 q 497 409 499 372 q 477 368 464 364 q 426 353 404 335 z m 66 230 q 77 132 129 82 q 180 31 266 31 q 364 31 419 104 q 456 154 464 220 q 466 238 484 249 q 489 248 495 247 q 496 237 496 227 q 496 152 447 87 q 382 1 267 1 q 147 1 84 86 q 36 151 36 229 q 36 240 37 246 q 38 251 46 248 q 66 242 66 230 z m 94 262 q 90 273 74 282 q 54 291 35 301 q 30 307 30 313 q 30 321 37 327 q 46 336 83 314 q 121 293 129 263 q 144 212 159 161 q 188 103 266 103 q 342 103 371 172 q 392 228 413 284 q 428 304 454 317 q 481 329 494 324 q 503 320 503 312 q 503 307 498 301 q 478 293 462 284 q 446 275 437 259 q 420 188 399 148 q 361 73 268 73 q 191 73 151 117 q 135 134 94 262 z m 211 314 q 211 247 217 222 q 229 173 268 173 q 305 173 316 220 q 321 243 321 308 q 321 375 315 400 q 304 448 264 448 q 228 448 217 403 q 211 377 211 314 z"},"N":{"x_min":0,"x_max":722,"ha":722,"o":"m 37 416 l 37 750 q 37 762 37 767 q 37 784 40 792 q 44 801 56 801 q 67 801 71 792 q 74 783 74 767 q 74 755 74 750 l 74 415 q 74 397 70 387 q 65 376 50 371 q 41 368 39 379 q 37 390 37 397 q 37 411 37 416 z m 414 -1 l 229 465 l 229 1 l 37 1 l 37 241 q 57 245 70 248 q 107 260 138 282 q 154 295 171 321 q 190 354 190 384 l 190 588 l 151 692 l 151 408 q 151 382 147 366 q 143 349 130 334 q 118 319 94 305 q 70 292 56 292 q 46 292 41 298 q 35 304 38 311 q 39 314 66 325 q 92 337 103 351 q 111 361 114 374 q 117 387 117 402 q 117 412 117 416 l 117 803 l 307 803 l 487 342 l 487 803 l 688 803 l 688 0 z m 490 336 l 465 291 l 412 284 l 452 243 l 444 192 l 493 212 l 543 193 l 531 243 l 571 284 l 514 290 z"},"G":{"x_min":0,"x_max":619,"ha":619,"o":"m 544 564 q 532 647 477 707 q 417 772 313 772 q 236 772 180 730 q 140 700 115 651 q 105 627 96 604 q 94 598 80 591 q 66 584 63 586 q 55 592 79 644 q 106 706 154 746 q 221 802 312 802 q 415 802 483 742 q 532 698 559 629 q 581 570 573 567 q 565 564 558 563 q 550 562 544 564 z m 467 556 q 444 606 421 657 q 382 700 316 700 q 245 700 205 651 q 171 588 156 561 q 141 534 97 517 q 60 503 46 506 q 43 507 45 517 q 46 528 50 531 q 78 539 98 550 q 119 560 129 578 q 178 668 182 673 q 230 730 317 730 q 412 730 466 649 q 514 576 497 562 q 493 559 483 558 q 472 557 467 556 z m 439 271 l 435 223 l 480 243 l 528 221 l 519 271 l 552 311 l 503 315 l 479 362 l 455 315 l 320 315 l 320 486 l 590 486 l 590 278 q 584 242 578 206 q 554 123 504 72 q 431 0 312 0 q 199 0 132 70 q 77 127 54 226 q 37 297 37 386 q 37 421 38 438 q 38 454 41 468 q 79 471 101 476 q 166 493 192 538 q 209 573 226 609 q 258 659 316 659 q 368 659 402 610 q 436 562 423 554 q 421 552 413 550 q 406 548 395 548 q 388 580 368 605 q 348 629 313 629 q 275 629 254 586 q 229 531 229 404 q 229 261 254 209 q 273 170 316 170 q 362 170 387 235 q 394 256 401 300 z"},"q":{"x_min":0,"x_max":542,"ha":542,"o":"m 330 -3 l 263 1 q 213 1 175 17 q 136 33 104 63 q 73 93 55 150 q 41 196 41 230 q 41 238 43 241 q 46 245 50 245 q 54 245 59 242 q 64 239 70 237 q 77 204 89 163 q 102 123 127 92 q 152 62 200 47 q 237 37 281 37 q 320 37 325 42 q 330 47 330 57 q 330 73 323 75 q 270 74 230 81 q 190 88 169 108 q 130 146 118 217 q 112 252 96 268 q 87 279 65 287 q 43 296 39 304 q 36 312 39 318 q 43 324 50 324 q 68 324 90 314 q 112 304 132 282 q 145 269 158 210 q 171 152 199 131 q 214 121 240 116 q 265 111 288 111 q 301 111 310 112 q 320 112 322 113 q 325 114 328 121 q 329 125 329 132 q 329 146 323 148 q 295 148 271 151 q 248 154 232 163 q 211 176 200 207 q 168 300 164 304 q 136 343 88 358 q 39 374 38 371 q 42 428 54 461 q 75 515 120 558 q 158 596 229 612 q 271 621 320 621 q 326 621 327 621 q 328 621 329 621 l 512 621 l 512 -187 l 330 -187 z m 329 423 l 371 395 l 366 346 l 412 366 l 455 346 l 449 396 l 483 431 l 435 443 l 410 486 l 387 443 l 285 443 q 251 443 235 396 q 222 360 222 307 q 222 242 234 213 q 246 185 286 185 l 329 185 z"},"d":{"x_min":0,"x_max":529,"ha":529,"o":"m 505 2 l 290 2 q 229 2 187 17 q 145 33 104 75 q 71 108 49 180 q 42 204 33 248 q 45 249 53 251 q 102 262 143 298 q 170 321 179 370 q 188 418 206 437 q 223 456 252 463 q 281 467 312 471 q 316 474 316 488 q 316 502 313 507 q 312 510 302 512 q 293 512 288 512 q 261 512 232 506 q 204 500 192 489 q 173 472 162 445 q 148 402 134 359 q 122 333 98 317 q 79 304 61 300 q 46 297 33 309 q 27 314 34 318 q 50 325 67 333 q 88 346 98 362 q 104 373 121 435 q 136 486 160 508 q 184 531 229 538 q 272 541 316 545 q 317 551 317 554 q 318 562 318 564 q 318 575 315 578 q 311 582 279 582 q 240 582 203 575 q 166 568 145 550 q 100 514 84 464 q 76 432 68 400 q 64 391 63 390 q 61 387 45 375 q 40 372 38 378 q 37 382 37 396 q 37 436 54 482 q 75 542 114 571 q 158 605 244 614 q 282 616 321 619 l 321 803 l 505 803 z m 318 434 q 318 436 304 436 q 300 436 290 436 q 212 436 212 311 q 212 247 229 211 q 246 174 287 174 l 310 174 l 290 129 l 238 122 l 271 83 l 264 29 l 312 54 l 358 28 l 353 80 l 389 120 l 337 129 l 318 173 z"},"1":{"x_min":0,"x_max":323,"ha":323,"o":"m 38 800 l 300 800 l 300 -1 l 111 0 l 111 596 l 149 570 l 144 519 l 190 543 l 240 521 l 232 571 l 271 612 l 218 617 l 190 660 l 160 618 l 38 618 z"},"5":{"x_min":0,"x_max":583,"ha":583,"o":"m 69 245 q 71 158 128 95 q 189 25 308 25 q 386 25 440 67 q 479 96 504 147 q 512 171 522 195 q 525 199 538 206 q 551 213 554 212 q 562 205 541 154 q 516 90 469 51 q 403 -4 306 -4 q 199 -4 133 46 q 82 86 58 151 q 42 195 42 233 q 42 239 42 240 q 42 241 43 242 q 58 247 69 245 z m 145 255 q 162 200 181 145 q 221 97 302 97 q 375 97 417 148 q 438 172 464 241 q 469 253 489 269 q 518 291 544 291 q 548 291 552 281 q 556 271 554 265 q 554 263 528 254 q 503 246 494 226 q 461 149 442 127 q 393 67 304 67 q 199 67 149 137 q 115 184 115 239 q 115 253 118 253 z m 236 528 l 346 528 q 394 528 437 506 q 480 485 502 456 q 534 412 544 370 q 546 355 547 336 q 515 327 497 320 q 443 296 422 258 q 406 222 390 188 q 358 138 300 138 q 243 138 212 182 q 191 213 191 247 q 191 254 193 256 q 197 259 204 259 q 213 258 218 258 q 221 236 230 213 q 248 169 297 169 q 328 169 350 192 q 372 215 372 243 q 372 322 329 346 q 314 353 284 354 l 38 354 l 38 803 l 519 803 l 519 622 l 226 622 l 226 528 l 204 479 l 150 472 l 191 433 l 179 379 l 230 402 l 280 380 l 270 431 l 307 473 l 254 479 z"}}}
